# Tiled2Unity generated file. Do not modify by hand.
# Wavefront file for 'smb2_mesh_0003.obj'

# Vertices (Count = 36)
v -72 -13 0
v -73 -13 0
v -73 -12 0
v -72 -12 0
v -71 -13 0
v -72 -13 0
v -72 -12 0
v -71 -12 0
v -70 -13 0
v -71 -13 0
v -71 -12 0
v -70 -12 0
v -72 -14 0
v -73 -14 0
v -73 -13 0
v -72 -13 0
v -71 -14 0
v -72 -14 0
v -72 -13 0
v -71 -13 0
v -70 -14 0
v -71 -14 0
v -71 -13 0
v -70 -13 0
v -72 -15 0
v -73 -15 0
v -73 -14 0
v -72 -14 0
v -71 -15 0
v -72 -15 0
v -72 -14 0
v -71 -14 0
v -70 -15 0
v -71 -15 0
v -71 -14 0
v -70 -14 0

# Texture cooridinates (Count = 16)
vt 0.8857143 0.2608696
vt 0.9142857 0.2608696
vt 0.9142857 0.3043478
vt 0.8857143 0.3043478
vt 0.8571429 0.2608696
vt 0.8571429 0.3043478
vt 0.8285714 0.2608696
vt 0.8285714 0.3043478
vt 0.8857143 0.2173913
vt 0.9142857 0.2173913
vt 0.8571429 0.2173913
vt 0.8285714 0.2173913
vt 0.8857143 0.1739131
vt 0.9142857 0.1739131
vt 0.8571429 0.1739131
vt 0.8285714 0.1739131

# Normal
vn 0 0 -1

# Mesh description
g smb2_mesh_0003

# Faces
f 1/1/1 2/2/1 3/3/1 4/4/1
f 5/5/1 6/1/1 7/4/1 8/6/1
f 9/7/1 10/5/1 11/6/1 12/8/1
f 13/9/1 14/10/1 15/2/1 16/1/1
f 17/11/1 18/9/1 19/1/1 20/5/1
f 21/12/1 22/11/1 23/5/1 24/7/1
f 25/13/1 26/14/1 27/10/1 28/9/1
f 29/15/1 30/13/1 31/9/1 32/11/1
f 33/16/1 34/15/1 35/11/1 36/12/1

